# xmcd
#
# Track frame offsets: 
#        150
#        14833
#        30120
#        50268
#        69376
#        88801
#        108564
#        127396
#        149696
#        167498
#
# Disc length: 2417 seconds
#
# Revision: 0
# Processed by: cddbd v1.5.2PL0 Copyright (c) Steve Scherf et al.
# Submitted via: ExactAudioCopy v0.95b4
#
DISCID=8d096f0a
DTITLE=Michelle Swan - Whistling In The Dark
DYEAR=2000
DGENRE=Blues
TTITLE0=I Remember Your Eyes
TTITLE1=Love Mirage
TTITLE2=Lifespell
TTITLE3=Whistling In The Dark
TTITLE4=If I Were You
TTITLE5=Wild Stallions
TTITLE6=This Man
TTITLE7=Hey You, It's Me
TTITLE8=Worlds Apart
TTITLE9=For Cryin' Out Loud
EXTD=
EXTT0=
EXTT1=
EXTT2=
EXTT3=
EXTT4=
EXTT5=
EXTT6=
EXTT7=
EXTT8=
EXTT9=
PLAYORDER=
